<?xml version="1.0" encoding="utf-8"?>
<!-- Generator: Adobe Illustrator 27.5.0, SVG Export Plug-In . SVG Version: 6.00 Build 0)  -->
<svg version="1.1" xmlns="http://www.w3.org/2000/svg" xmlns:xlink="http://www.w3.org/1999/xlink" x="0px" y="0px"
	 viewBox="0 0 500 500" style="enable-background:new 0 0 500 500;" xml:space="preserve">
<g id="BACKGROUND">
	<rect style="fill:#BAEEFF;" width="500" height="500"/>
</g>
<g id="OBJECTS">
	<path style="fill:#FFFFFF;" d="M432.961,360.21c19.713-32.387,31.071-70.419,31.071-111.107
		c0-118.206-95.825-214.031-214.031-214.031S35.969,130.896,35.969,249.102c0,40.688,11.357,78.721,31.071,111.107H432.961z"/>
	<path style="opacity:0.1;" d="M458.867,356.027c-0.613-10.552-8.188-19.311-18.172-21.727c8.545-22.495,13.231-46.89,13.231-72.383
		c0-22.971-3.801-45.054-10.804-65.658c0.583-0.612,1.182-1.242,1.819-1.914c14.809-15.622,25.035-28.04,37.06-43.299
		c-11.384,4.374-28.78,21.077-42.073,36.483c-3.412-8.706-7.414-17.114-11.942-25.189h9.457c5.728,0,10.413-4.686,10.413-10.413l0,0
		c0-5.727-4.686-10.413-10.413-10.413h-8.229v-2.869c0-5.588-4.572-10.16-10.16-10.16c-2.539,0-4.862,0.951-6.648,2.505
		c-0.052-7.815-6.457-14.193-14.284-14.193h0c-1.466,0-2.882,0.225-4.216,0.64C357.026,80.701,306.166,57.991,250,57.991
		c-27.724,0-54.151,5.542-78.246,15.564c-0.116,0.048-0.233,0.094-0.349,0.143c-1.305,0.546-2.601,1.108-3.892,1.68
		c-0.189,0.084-0.38,0.164-0.569,0.249c-1.236,0.552-2.463,1.12-3.685,1.695c-0.24,0.113-0.481,0.223-0.72,0.336
		c-0.752,0.357-1.5,0.721-2.246,1.088l0,0c-0.002,0.001-0.003,0.002-0.005,0.003c-0.425,0.208-0.847,0.42-1.27,0.631
		c-0.275,0.137-0.552,0.272-0.826,0.41c-1.139,0.575-2.269,1.164-3.396,1.76c-0.296,0.157-0.593,0.311-0.888,0.469
		c-1.072,0.574-2.137,1.16-3.198,1.753c-0.099,0.055-0.199,0.109-0.298,0.164c-0.243,0.136-0.486,0.272-0.728,0.409
		c-1.076,0.609-2.145,1.23-3.209,1.859c-0.316,0.187-0.633,0.372-0.947,0.56c-0.039,0.023-0.078,0.046-0.117,0.069
		c-1.567-6.644-4.511-12.753-8.525-18.007c-0.582-0.762-1.189-1.502-1.815-2.227c-0.769-0.891-1.56-1.762-2.391-2.593
		c-0.832-0.831-1.703-1.622-2.593-2.391c-0.725-0.626-1.466-1.233-2.227-1.815c-8.054-6.153-18.112-9.815-29.03-9.815
		c-0.632,0-1.258,0.02-1.883,0.048c-0.412,0.016-0.823,0.038-1.232,0.064h0l0,0c-23.955,1.54-43.105,20.691-44.645,44.645l0,0v0
		c-0.026,0.41-0.048,0.82-0.064,1.232c-0.028,0.625-0.048,1.251-0.048,1.883c0,13.22,5.358,25.188,14.022,33.851
		c0.541,0.542,1.096,1.07,1.663,1.585c1.7,1.545,3.512,2.97,5.423,4.261c0.637,0.43,1.284,0.845,1.942,1.245
		c1.316,0.8,2.674,1.538,4.069,2.21c1.921,0.926,3.918,1.717,5.971,2.383c-2.5,3.495-4.886,7.077-7.166,10.731
		c-0.076,0.122-0.153,0.244-0.229,0.366c-0.617,0.994-1.227,1.992-1.828,2.997l0,0l0,0c-2.914,4.878-5.631,9.885-8.138,15.015
		c0,0,0,0.001,0,0.001l0,0.001c-2.694,5.513-5.142,11.166-7.339,16.944c-4.005,2.193-6.741,6.438-6.774,11.295
		c-1.62-1.41-3.728-2.273-6.032-2.273h0c-5.07,0-9.218,4.148-9.218,9.218v3.825h-3.379c-5.727,0-10.413,4.686-10.413,10.413
		s4.686,10.413,10.413,10.413h14.277c-1.403,9.658-2.143,19.531-2.143,29.577c0,25.493,4.686,49.888,13.231,72.383
		c-9.984,2.417-17.559,11.175-18.172,21.727c-0.003,0.046-0.008,0.091-0.01,0.137c-0.021,0.412-0.033,0.827-0.033,1.244
		c0,0.409,0.011,0.815,0.031,1.219c0.103,2.019,0.461,3.973,1.042,5.831c0.465,1.486,1.073,2.912,1.807,4.259
		c1.285,2.358,2.958,4.477,4.931,6.272c0.282,0.256,0.57,0.506,0.864,0.749c1.175,0.971,2.445,1.832,3.792,2.566
		c3.368,1.836,7.222,2.881,11.309,2.881h12.906c-5.837,0.606-10.58,5.027-11.687,10.706c-0.017,0.086-0.025,0.176-0.04,0.263
		c-0.056,0.321-0.111,0.643-0.143,0.971c-0.043,0.428-0.066,0.861-0.066,1.299c0,1.662,0.322,3.249,0.885,4.719
		c0.132,0.345,0.278,0.681,0.437,1.012c0.17,0.352,0.353,0.695,0.552,1.03c0.552,0.928,1.205,1.789,1.958,2.555
		c0.027,0.028,0.051,0.058,0.078,0.086c2.413,2.413,5.741,3.91,9.401,3.91h22.121c-5.365,0-10.004,3.222-12.106,7.822l0,0v0
		c-0.191,0.418-0.363,0.847-0.511,1.287c0,0.002-0.001,0.003-0.002,0.005c-0.139,0.413-0.257,0.835-0.355,1.265
		c-0.008,0.035-0.019,0.068-0.027,0.103c-0.086,0.392-0.15,0.791-0.2,1.194c-0.009,0.072-0.025,0.142-0.033,0.214
		c-0.05,0.467-0.079,0.941-0.079,1.421c0,4.576,2.34,8.632,5.882,11.03c0.708,0.48,1.465,0.893,2.261,1.231
		c0.398,0.169,0.805,0.319,1.221,0.449c1.249,0.39,2.574,0.601,3.947,0.601h0h36.384c-5.667,0-10.522,3.595-12.434,8.611v0
		c0,0,0,0.001,0,0.001c-0.138,0.362-0.262,0.731-0.369,1.107c-0.005,0.018-0.009,0.036-0.014,0.053
		c-0.099,0.355-0.188,0.714-0.257,1.08c-0.021,0.111-0.033,0.225-0.052,0.337c-0.046,0.283-0.095,0.565-0.122,0.853
		c-0.041,0.417-0.065,0.84-0.065,1.268l0,0c0,1.662,0.322,3.249,0.885,4.719c0.132,0.345,0.278,0.681,0.437,1.012
		c0.17,0.352,0.353,0.695,0.552,1.03c0.552,0.928,1.205,1.789,1.958,2.555c0.027,0.028,0.051,0.058,0.078,0.086
		c2.413,2.413,5.741,3.91,9.401,3.91h110.967h64.259h49.442c7.322,0,13.312-5.99,13.312-13.312v0l0,0
		c0-0.428-0.023-0.85-0.065-1.268c-0.028-0.289-0.076-0.572-0.122-0.855c-0.019-0.112-0.03-0.225-0.052-0.336
		c-0.069-0.366-0.158-0.725-0.257-1.08c-0.005-0.018-0.009-0.036-0.014-0.053c-0.106-0.377-0.23-0.745-0.368-1.107
		c0,0,0-0.001,0-0.001l0,0c-1.912-5.017-6.767-8.611-12.434-8.611h40.025c2.288,0,4.446-0.585,6.332-1.613
		c0.754-0.411,1.465-0.893,2.123-1.437c0.658-0.544,1.264-1.149,1.807-1.807c1.359-1.645,2.333-3.62,2.778-5.781
		c0.178-0.865,0.272-1.759,0.272-2.674c0-0.48-0.029-0.954-0.079-1.421c-0.008-0.072-0.024-0.142-0.033-0.214
		c-0.05-0.404-0.114-0.803-0.2-1.194c-0.008-0.035-0.019-0.069-0.027-0.103c-0.098-0.43-0.216-0.851-0.354-1.264
		c-0.001-0.003-0.002-0.005-0.003-0.007c-0.147-0.439-0.319-0.866-0.509-1.284l0-0.001v0c-2.103-4.6-6.741-7.822-12.106-7.822h24.78
		c3.661,0,6.989-1.498,9.401-3.91c2.413-2.413,3.91-5.741,3.91-9.401c0-0.439-0.023-0.872-0.066-1.299
		c-0.032-0.328-0.087-0.65-0.143-0.971c-0.015-0.087-0.023-0.177-0.04-0.263c-0.158-0.811-0.394-1.592-0.693-2.344l-0.001-0.002v0
		c-1.796-4.515-5.989-7.841-10.993-8.361h6.634c4.087,0,7.941-1.045,11.309-2.881c1.347-0.734,2.617-1.595,3.792-2.566
		c0.294-0.243,0.582-0.492,0.864-0.749c1.973-1.794,3.646-3.914,4.931-6.272c0.734-1.347,1.342-2.772,1.807-4.259
		c0.581-1.858,0.939-3.813,1.043-5.831c0.021-0.404,0.031-0.81,0.031-1.219c0-0.417-0.012-0.832-0.033-1.244
		C458.875,356.118,458.869,356.073,458.867,356.027z"/>
	<g>
		<g>
			<path style="fill:#00ACE9;" d="M308.902,445.121c83.905-25.275,145.023-103.131,145.023-195.275
				c0-112.625-91.3-203.925-203.925-203.925s-203.925,91.3-203.925,203.925c0,92.143,61.119,170,145.023,195.275H308.902z"/>
			<path style="fill:#47C1ED;" d="M66.683,160.432c9.707,4.068,20.347,6.351,31.53,6.351c45.136,0,81.726-36.59,81.726-81.726
				c0-8.82-1.431-17.298-4.018-25.255C128.107,78.453,89.067,114.626,66.683,160.432z"/>
			<path style="fill:#80D4F2;" d="M74.822,145.415c7.258,2.816,15.138,4.386,23.391,4.386c35.757,0,64.744-28.987,64.744-64.744
				c0-6.388-0.941-12.553-2.665-18.382C124.749,84.115,95.029,111.592,74.822,145.415z"/>
		</g>
		<g>
			<path style="fill:#008ABA;" d="M421.847,202.205c-3.178,0-5.754,40.163-5.754,89.707c0,13.219,0.185,25.758,0.514,37.056
				c1.735,0.128,3.482,0.194,5.24,0.194c1.758,0,3.504-0.067,5.24-0.194c0.329-11.299,0.514-23.837,0.514-37.056
				C427.6,242.368,425.024,202.205,421.847,202.205z"/>
			<path style="fill:#008ABA;" d="M421.847,223.333L421.847,223.333c-3.701,0-6.729-3.028-6.729-6.729v-7.29
				c0-3.701,3.028-6.729,6.729-6.729l0,0c3.701,0,6.729,3.028,6.729,6.729v7.29C428.576,220.305,425.548,223.333,421.847,223.333z"
				/>
			<g>
				<path style="fill:#008ABA;" d="M426.792,229.04c-5.521-20.805-4.89-20.459-2.598-21.068c2.293-0.608,2.323-5.429,9.252,14.951
					c6.876,20.223,13.209,47.262,10.74,60.391C437.513,265.068,432.313,249.845,426.792,229.04z"/>
				<path style="fill:#008ABA;" d="M394.836,189.814c20.638,6.117,20.015,6.475,19.341,8.749c-0.674,2.274,3.426,4.81-17.582,0.117
					c-20.846-4.656-47.229-13.325-57.154-22.267C358.493,180.213,374.198,183.698,394.836,189.814z"/>
				<path style="fill:#008ABA;" d="M444.94,182.275c-14.809,15.622-14.845,14.904-16.567,13.272
					c-1.721-1.632-5.84,0.873,7.867-15.724c13.602-16.469,33.289-36.055,45.76-40.847
					C469.975,154.235,459.749,166.653,444.94,182.275z"/>
				<path style="fill:#008ABA;" d="M411.287,203.572c-1.607-6.057,2-12.271,8.057-13.878c6.057-1.607,12.271,2,13.878,8.057
					c1.607,6.057-2,12.271-8.057,13.878C419.108,213.236,412.894,209.629,411.287,203.572z"/>
				<path style="fill:#008ABA;" d="M416.693,202.137c-0.815-3.071,1.014-6.222,4.086-7.037c3.071-0.815,6.222,1.014,7.037,4.085
					s-1.014,6.222-4.085,7.037C420.659,207.038,417.508,205.208,416.693,202.137z"/>
			</g>
		</g>
		<g>
			<path style="fill:#008ABA;" d="M225.649,239.098c2.476,0,4.484,31.297,4.484,69.904c0,10.301-0.144,20.071-0.401,28.876
				c-1.352,0.099-2.713,0.151-4.083,0.151c-1.37,0-2.731-0.052-4.083-0.151c-0.257-8.805-0.401-18.575-0.401-28.876
				C221.165,270.395,223.172,239.098,225.649,239.098z"/>
			<path style="fill:#008ABA;" d="M225.649,255.562L225.649,255.562c2.884,0,5.244-2.36,5.244-5.244v-5.681
				c0-2.884-2.36-5.244-5.244-5.244l0,0c-2.884,0-5.244,2.36-5.244,5.244v5.681C220.405,253.202,222.765,255.562,225.649,255.562z"
				/>
			<g>
				<path style="fill:#008ABA;" d="M243.674,254.338c-12.153-11.56-12.153-11-13.427-9.661c-1.274,1.339-4.58-0.444,6.755,11.92
					c11.248,12.268,27.359,26.717,37.256,29.944C264.286,275.15,255.828,265.898,243.674,254.338z"/>
				<path style="fill:#008ABA;" d="M228.825,217.814c-3.544,16.395-3.066,16.103-1.259,16.493c1.807,0.39,2.005,4.141,6.661-11.973
					c4.62-15.991,8.57-37.267,6.173-47.398C235.865,189.382,232.369,201.42,228.825,217.814z"/>
				<path style="fill:#008ABA;" d="M204.919,249.238c16.219-4.274,15.743-4.568,15.272-6.356c-0.471-1.787,2.782-3.665-13.691-0.508
					c-16.347,3.132-37.102,9.258-45.045,15.988C176.384,255.854,188.699,253.513,204.919,249.238z"/>
				<circle style="fill:#008ABA;" cx="225.976" cy="240.615" r="8.842"/>
				<path style="fill:#008ABA;" d="M229.066,237.366c-1.794-1.707-4.632-1.636-6.339,0.158c-1.707,1.794-1.636,4.632,0.159,6.339
					c1.794,1.707,4.632,1.636,6.339-0.159C230.931,241.91,230.86,239.072,229.066,237.366z"/>
			</g>
		</g>
		<g>
			<path style="fill:#ACC23A;" d="M435.134,369.114H64.866c-13.077,0-23.776-10.699-23.776-23.776l0,0
				c0-13.077,10.699-23.776,23.776-23.776h370.268c13.077,0,23.776,10.699,23.776,23.776l0,0
				C458.91,358.415,448.211,369.114,435.134,369.114z"/>
			<path style="fill:#9AB600;" d="M435.134,350.195H64.866c-9.718,0-18.114-5.914-21.79-14.316c-1.271,2.904-1.986,6.101-1.986,9.46
				c0,13.077,10.699,23.776,23.776,23.776h370.268c13.077,0,23.776-10.699,23.776-23.776c0-3.359-0.715-6.556-1.986-9.46
				C453.248,344.28,444.852,350.195,435.134,350.195z"/>
			<path style="fill:#ACC23A;" d="M276.19,395.665H79.147c-7.322,0-13.312-5.99-13.312-13.312l0,0
				c0-7.322,5.99-13.312,13.312-13.312H276.19c7.322,0,13.312,5.99,13.312,13.312l0,0
				C289.502,389.675,283.512,395.665,276.19,395.665z"/>
			<path style="fill:#9AB600;" d="M276.19,385.907H79.147c-5.599,0-10.41-3.509-12.368-8.432c-0.602,1.514-0.944,3.157-0.944,4.879
				c0,7.322,5.99,13.312,13.312,13.312H276.19c7.322,0,13.312-5.99,13.312-13.312c0-1.722-0.342-3.365-0.944-4.879
				C286.6,382.398,281.79,385.907,276.19,385.907z"/>
			<path style="fill:#00ACE9;" d="M427.125,395.665H230.082c-7.321,0-13.312-5.99-13.312-13.312l0,0
				c0-7.322,5.99-13.312,13.312-13.312h197.044c7.322,0,13.312,5.99,13.312,13.312l0,0
				C440.437,389.675,434.447,395.665,427.125,395.665z"/>
			<g>
				<path style="fill:#DEDEC8;" d="M391.518,298.086c-23.047,0-41.731,18.684-41.731,41.731s18.684,41.731,41.731,41.731
					c23.047,0,41.731-18.684,41.731-41.731S414.566,298.086,391.518,298.086z M391.518,371.343
					c-17.411,0-31.526-14.115-31.526-31.526c0-17.411,14.115-31.526,31.526-31.526c17.411,0,31.526,14.115,31.526,31.526
					C423.044,357.228,408.929,371.343,391.518,371.343z"/>
				<path style="fill:#C9C9B5;" d="M391.518,303.189c-20.229,0-36.629,16.399-36.629,36.629c0,20.229,16.399,36.629,36.629,36.629
					c20.229,0,36.629-16.399,36.629-36.629C428.147,319.588,411.748,303.189,391.518,303.189z M391.518,371.343
					c-17.411,0-31.526-14.115-31.526-31.526c0-17.411,14.115-31.526,31.526-31.526c17.411,0,31.526,14.115,31.526,31.526
					C423.044,357.229,408.929,371.343,391.518,371.343z"/>
				<rect x="388.056" y="293.728" style="fill:#FFFFFF;" width="6.925" height="92.179"/>
				<rect x="391.518" y="293.728" style="fill:#F5F5F5;" width="3.462" height="92.179"/>
				
					<rect x="388.056" y="293.728" transform="matrix(0.7071 0.7071 -0.7071 0.7071 354.96 -177.315)" style="fill:#FFFFFF;" width="6.925" height="92.179"/>
				
					<rect x="391.179" y="295.021" transform="matrix(0.7071 0.7071 -0.7071 0.7071 356.2538 -177.8509)" style="fill:#F5F5F5;" width="3.266" height="92.179"/>
				
					<rect x="388.056" y="293.728" transform="matrix(-1.836970e-16 1 -1 -1.836970e-16 731.3353 -51.7009)" style="fill:#FFFFFF;" width="6.925" height="92.179"/>
				
					<rect x="389.787" y="295.459" transform="matrix(-1.836970e-16 1 -1 -1.836970e-16 733.0664 -49.9697)" style="fill:#F5F5F5;" width="3.463" height="92.179"/>
				
					<rect x="388.056" y="293.728" transform="matrix(-0.7071 0.7071 -0.7071 -0.7071 908.6503 303.259)" style="fill:#FFFFFF;" width="6.925" height="92.179"/>
				
					<rect x="388.585" y="295.006" transform="matrix(-0.7071 0.7071 -0.7071 -0.7071 907.3716 306.3461)" style="fill:#F5F5F5;" width="3.308" height="92.179"/>
				
					<ellipse transform="matrix(0.1607 -0.987 0.987 0.1607 -6.788 671.652)" style="fill:#C9C9B5;" cx="391.518" cy="339.817" rx="9.658" ry="9.658"/>
				<circle style="fill:#DEDEC8;" cx="391.518" cy="339.817" r="7.548"/>
				<path style="fill:#FFFFFF;" d="M397.135,339.817c0,3.102-2.515,5.617-5.617,5.617c-3.102,0-5.617-2.515-5.617-5.617
					c0-3.102,2.515-5.617,5.617-5.617C394.62,334.2,397.135,336.715,397.135,339.817z"/>
			</g>
			<rect x="279.644" y="375.536" style="fill:#00ACE9;" width="150.491" height="12.024"/>
			<path style="fill:#0097CC;" d="M427.125,385.907H230.082c-5.6,0-10.41-3.509-12.368-8.432c-0.602,1.514-0.944,3.157-0.944,4.879
				c0,7.322,5.99,13.312,13.312,13.312h197.043c7.322,0,13.312-5.99,13.312-13.312c0-1.722-0.342-3.365-0.944-4.879
				C437.535,382.398,432.725,385.907,427.125,385.907z"/>
			<path style="fill:#95B000;" d="M312.878,448.913H137.652c-7.322,0-13.312-5.99-13.312-13.312v0
				c0-7.321,5.99-13.312,13.312-13.312h175.226c7.322,0,13.312,5.99,13.312,13.312v0C326.19,442.922,320.2,448.913,312.878,448.913z
				"/>
			<path style="fill:#849C00;" d="M312.878,439.512H137.652c-5.667,0-10.522-3.595-12.434-8.611
				c-0.558,1.465-0.878,3.046-0.878,4.701v0c0,7.321,5.99,13.312,13.312,13.312h175.226c7.322,0,13.312-5.99,13.312-13.312v0
				c0-1.655-0.32-3.235-0.878-4.701C323.4,435.917,318.545,439.512,312.878,439.512z"/>
			<path style="fill:#00ACE9;" d="M362.321,448.913H248.619c-7.322,0-13.312-5.99-13.312-13.312v0
				c0-7.321,5.99-13.312,13.312-13.312h113.702c7.322,0,13.312,5.99,13.312,13.312v0
				C375.633,442.922,369.642,448.913,362.321,448.913z"/>
			<path style="fill:#0097CC;" d="M362.321,439.512H248.619c-5.667,0-10.522-3.595-12.434-8.611
				c-0.558,1.465-0.878,3.046-0.878,4.701v0c0,7.321,5.99,13.312,13.312,13.312h113.702c7.322,0,13.312-5.99,13.312-13.312v0
				c0-1.655-0.32-3.235-0.878-4.701C372.843,435.917,367.987,439.512,362.321,439.512z"/>
			<path style="fill:#9AB600;" d="M239.767,422.289H101.268c-7.321,0-13.312-5.99-13.312-13.312l0,0
				c0-7.322,5.99-13.312,13.312-13.312h138.499c7.322,0,13.312,5.99,13.312,13.312l0,0
				C253.078,416.299,247.088,422.289,239.767,422.289z"/>
			<path style="fill:#9AB600;" d="M239.767,422.289H101.268c-7.321,0-13.312-5.99-13.312-13.312l0,0
				c0-7.322,5.99-13.312,13.312-13.312h138.499c7.322,0,13.312,5.99,13.312,13.312l0,0
				C253.078,416.299,247.088,422.289,239.767,422.289z"/>
			<path style="fill:#849C00;" d="M239.767,411.309H101.268c-5.365,0-10.004-3.222-12.106-7.822
				c-0.767,1.678-1.206,3.533-1.206,5.49c0,7.322,5.99,13.312,13.312,13.312h138.499c7.321,0,13.312-5.99,13.312-13.312
				c0-1.957-0.439-3.813-1.206-5.49C249.77,408.086,245.131,411.309,239.767,411.309z"/>
			<path style="fill:#009FD6;" d="M402.345,422.289h-189.46c-7.321,0-13.312-5.99-13.312-13.312l0,0
				c0-7.322,5.99-13.312,13.312-13.312h189.46c7.322,0,13.312,5.99,13.312,13.312l0,0
				C415.657,416.299,409.667,422.289,402.345,422.289z"/>
			<path style="fill:#007EAB;" d="M402.345,411.309h-189.46c-5.365,0-10.004-3.222-12.106-7.822
				c-0.767,1.678-1.206,3.533-1.206,5.49c0,7.322,5.99,13.312,13.312,13.312h189.46c7.322,0,13.312-5.99,13.312-13.312
				c0-1.957-0.439-3.813-1.206-5.49C412.349,408.086,407.71,411.309,402.345,411.309z"/>
			<path style="fill:#44BEE9;" d="M271.255,377.474h-33.824c-1.115,0-2.026-0.912-2.026-2.026l0,0c0-1.115,0.912-2.026,2.026-2.026
				h33.824c1.115,0,2.026,0.912,2.026,2.026l0,0C273.282,376.563,272.37,377.474,271.255,377.474z"/>
			<path style="fill:#44BEE9;" d="M290.194,431.775H256.37c-1.115,0-2.026-0.912-2.026-2.026l0,0c0-1.115,0.912-2.026,2.026-2.026
				h33.824c1.115,0,2.026,0.912,2.026,2.026l0,0C292.22,430.863,291.308,431.775,290.194,431.775z"/>
			<path style="fill:#00ACE9;" d="M257.602,407.54h-33.824c-1.114,0-2.026-0.912-2.026-2.026l0,0c0-1.115,0.912-2.026,2.026-2.026
				h33.824c1.115,0,2.026,0.912,2.026,2.026l0,0C259.628,406.628,258.717,407.54,257.602,407.54z"/>
			<path style="fill:#00ACE9;" d="M377.508,405.513h-23.323c-1.114,0-2.026-0.912-2.026-2.026l0,0c0-1.115,0.912-2.026,2.026-2.026
				h23.323c1.114,0,2.026,0.912,2.026,2.026l0,0C379.535,404.602,378.623,405.513,377.508,405.513z"/>
			<path style="fill:#44BEE9;" d="M415.729,378.904h-49.1c-1.114,0-2.026-0.912-2.026-2.026l0,0c0-1.115,0.912-2.026,2.026-2.026
				h49.1c1.114,0,2.026,0.912,2.026,2.026l0,0C417.756,377.992,416.844,378.904,415.729,378.904z"/>
			<path style="fill:#44BEE9;" d="M342.156,381.527h-56.22c-1.115,0-2.026-0.912-2.026-2.026l0,0c0-1.114,0.912-2.026,2.026-2.026
				h56.22c1.115,0,2.026,0.912,2.026,2.026l0,0C344.183,380.615,343.271,381.527,342.156,381.527z"/>
			<path style="fill:#44BEE9;" d="M356.23,434.447h-50.131c-1.115,0-2.026-0.912-2.026-2.026l0,0c0-1.115,0.912-2.026,2.026-2.026
				h50.131c1.115,0,2.026,0.912,2.026,2.026l0,0C358.257,433.535,357.345,434.447,356.23,434.447z"/>
			<path style="fill:#00ACE9;" d="M329.138,402.439h-56.22c-1.115,0-2.026-0.912-2.026-2.026l0,0c0-1.115,0.912-2.026,2.026-2.026
				h56.22c1.115,0,2.026,0.912,2.026,2.026l0,0C331.165,401.527,330.253,402.439,329.138,402.439z"/>
		</g>
		<g>
			
				<ellipse transform="matrix(0.7071 -0.7071 0.7071 0.7071 -31.7135 95.008)" style="fill:#FFE400;" cx="98.828" cy="85.786" rx="47.873" ry="47.873"/>
			<path style="fill:#E6CD00;" d="M98.828,37.913c-1.048,0-2.084,0.046-3.116,0.112c21.753,1.495,38.939,19.603,38.939,41.736
				c0,23.112-18.736,41.848-41.848,41.848c-22.133,0-40.241-17.186-41.736-38.939c-0.066,1.031-0.112,2.068-0.112,3.116
				c0,26.439,21.433,47.873,47.873,47.873c26.439,0,47.873-21.433,47.873-47.873C146.701,59.346,125.267,37.913,98.828,37.913z"/>
			<circle style="fill:#FFF38C;" cx="87.42" cy="74.378" r="18.573"/>
		</g>
		<path style="fill:#9AB600;" d="M336.223,341.266h-24.429c-3.488,0-6.342-2.854-6.342-6.342l0,0c0-3.488,2.854-6.342,6.342-6.342
			h24.429c3.488,0,6.342,2.854,6.342,6.342l0,0C342.565,338.412,339.711,341.266,336.223,341.266z"/>
		<g>
			<path style="fill:#FFFFFF;" d="M324.009,189.968c-3.628,0-6.569,45.857-6.569,102.425c0,15.093,0.211,29.409,0.587,42.31
				c1.981,0.145,3.976,0.222,5.982,0.222c2.007,0,4.001-0.076,5.982-0.222c0.376-12.901,0.587-27.217,0.587-42.31
				C330.578,235.825,327.637,189.968,324.009,189.968z"/>
			<path style="fill:#E6E6E6;" d="M324.009,189.968c-0.851,0-1.664,2.521-2.41,7.11c2.436,14.983,4.16,52.01,4.16,95.315
				c0,15.093-0.211,29.409-0.587,42.31c-1.186,0.087-2.378,0.141-3.573,0.176c0.802,0.024,1.604,0.045,2.41,0.045
				c2.007,0,4.001-0.076,5.983-0.222c0.376-12.901,0.587-27.217,0.587-42.31C330.578,235.825,327.637,189.968,324.009,189.968z"/>
			<path style="fill:#80D4F2;" d="M324.009,214.091L324.009,214.091c-4.226,0-7.684-3.458-7.684-7.684v-8.324
				c0-4.226,3.458-7.683,7.684-7.683l0,0c4.226,0,7.684,3.457,7.684,7.683v8.324C331.692,210.633,328.234,214.091,324.009,214.091z"
				/>
			<path style="fill:#47C1ED;" d="M324.009,190.4c-4.226,0-7.684,3.458-7.684,7.684v5.036c2.151,1.59,4.803,2.542,7.684,2.542
				c2.881,0,5.532-0.952,7.684-2.542v-5.036C331.692,193.858,328.234,190.4,324.009,190.4z"/>
			<g>
				<path style="fill:#80D4F2;" d="M327.311,155.253c0,24.577-0.595,24.011-3.303,24.011c-2.708,0-4.154,5.311-5.832-19.209
					c-1.666-24.331-0.737-56.025,5.832-69.792C326.031,112.354,327.311,130.676,327.311,155.253z"/>
				<path style="fill:#80D4F2;" d="M351.091,207.901c-20.984-12.794-20.191-13.007-18.782-15.319
					c1.41-2.312-2.372-6.311,19.437,5.019c21.642,11.243,48.219,28.536,56.553,41.311
					C388.386,229.139,372.075,220.694,351.091,207.901z"/>
				<path style="fill:#80D4F2;" d="M293.588,201.548c20.917-12.903,20.748-12.1,22.17-9.795c1.422,2.305,6.701,0.747-13.286,15.049
					c-19.833,14.192-47.296,30.041-62.462,31.677C257.749,225.161,272.671,214.451,293.588,201.548z"/>
				<circle style="fill:#FFFFFF;" cx="324.009" cy="187.901" r="12.956"/>
				<path style="fill:#80D4F2;" d="M330.578,187.901c0,3.628-2.941,6.569-6.57,6.569c-3.628,0-6.569-2.941-6.569-6.569
					c0-3.628,2.941-6.57,6.569-6.57C327.637,181.331,330.578,184.272,330.578,187.901z"/>
			</g>
		</g>
		<path style="fill:#9AB600;" d="M192.595,342.418H68.29c-3.466,0-6.301-2.836-6.301-6.301l0,0c0-3.466,2.836-6.301,6.301-6.301
			h124.305c3.466,0,6.301,2.835,6.301,6.301l0,0C198.897,339.583,196.061,342.418,192.595,342.418z"/>
		<g>
			<polygon style="fill:#753229;" points="196.471,268.697 192.415,271.02 183.098,271.02 169.726,231.836 172.383,227.352 			"/>
			<polygon style="fill:#5E2821;" points="192.415,271.02 189.363,263.233 185.785,271.02 			"/>
			
				<rect x="155.403" y="263.233" transform="matrix(-1 -1.224647e-16 1.224647e-16 -1 344.7661 598.6797)" style="fill:#DEDEC8;" width="33.96" height="72.215"/>
			<polygon style="fill:#DEDEC8;" points="189.363,263.233 172.383,232.66 155.403,263.233 			"/>
			<rect x="76.439" y="256.483" style="fill:#FFFFFF;" width="78.964" height="78.964"/>
			<path style="fill:#DEDEC8;" d="M105.119,294.714H87.611c-2.568,0-4.649,2.082-4.649,4.649v36.06c0,0.008,0.002,0.016,0.002,0.024
				h26.801c0-0.008,0.002-0.016,0.002-0.024v-36.06C109.768,296.796,107.687,294.714,105.119,294.714z"/>
			<polygon style="fill:#753229;" points="174.566,231.836 172.383,227.352 69.164,268.277 71.347,272.76 150.311,272.76 			"/>
			<polygon style="fill:#A44539;" points="172.383,227.352 93.419,227.352 69.164,268.277 148.128,268.277 			"/>
			<g>
				<polygon style="fill:#DEDEC8;" points="130.409,224.918 128.957,222.689 84.839,247.72 86.291,249.949 115.196,249.949 				"/>
				<polygon style="fill:#FFFFFF;" points="128.957,222.689 100.052,222.689 84.839,247.72 113.744,247.72 				"/>
				<polygon style="fill:#008ABA;" points="107.2,224.918 101.256,224.918 95.671,234.294 101.614,234.294 				"/>
				<polygon style="fill:#008ABA;" points="115.506,224.918 109.562,224.918 103.976,234.294 109.92,234.294 				"/>
				<polygon style="fill:#008ABA;" points="123.812,224.918 117.868,224.918 112.282,234.294 118.226,234.294 				"/>
				<polygon style="fill:#008ABA;" points="100.789,235.54 94.845,235.54 89.259,244.916 95.203,244.916 				"/>
				<polygon style="fill:#008ABA;" points="109.095,235.54 103.151,235.54 97.565,244.916 103.509,244.916 				"/>
				<polygon style="fill:#008ABA;" points="117.4,235.54 111.457,235.54 105.871,244.916 111.815,244.916 				"/>
			</g>
			<g>
				<polygon style="fill:#DEDEC8;" points="167.495,224.918 166.043,222.689 121.926,247.72 123.377,249.949 152.282,249.949 				
					"/>
				<polygon style="fill:#FFFFFF;" points="166.043,222.689 137.138,222.689 121.926,247.72 150.831,247.72 				"/>
				<polygon style="fill:#008ABA;" points="144.287,224.918 138.343,224.918 132.757,234.294 138.701,234.294 				"/>
				<polygon style="fill:#008ABA;" points="152.593,224.918 146.649,224.918 141.063,234.294 147.007,234.294 				"/>
				<polygon style="fill:#008ABA;" points="160.898,224.918 154.955,224.918 149.369,234.294 155.313,234.294 				"/>
				<polygon style="fill:#008ABA;" points="137.875,235.54 131.931,235.54 126.345,244.916 132.289,244.916 				"/>
				<polygon style="fill:#008ABA;" points="146.181,235.54 140.237,235.54 134.651,244.916 140.595,244.916 				"/>
				<polygon style="fill:#008ABA;" points="154.487,235.54 148.543,235.54 142.957,244.916 148.901,244.916 				"/>
			</g>
			<rect x="86.859" y="299.34" style="fill:#A44539;" width="19.012" height="36.107"/>
			<path style="fill:#753229;" d="M103.302,317.393c0,1.1-0.892,1.992-1.992,1.992s-1.992-0.892-1.992-1.992
				s0.892-1.992,1.992-1.992S103.302,316.293,103.302,317.393z"/>
			<g>
				<path style="fill:#DEDEC8;" d="M141.358,312.064h-18.495c-1.786,0-3.234-1.448-3.234-3.234v-22.625
					c0-1.786,1.448-3.234,3.234-3.234h18.495c1.786,0,3.234,1.448,3.234,3.234v22.625
					C144.592,310.616,143.144,312.064,141.358,312.064z"/>
				<rect x="123.158" y="286.14" style="fill:#008ABA;" width="17.905" height="22.756"/>
				<rect x="124.622" y="287.625" style="fill:#00ACE9;" width="14.977" height="19.786"/>
				<path style="fill:#FFFFFF;" d="M132.11,311.001L132.11,311.001c-0.917,0-1.667-0.75-1.667-1.667v-23.633
					c0-0.917,0.75-1.667,1.667-1.667l0,0c0.917,0,1.667,0.75,1.667,1.667v23.633C133.778,310.251,133.027,311.001,132.11,311.001z"
					/>
				<path style="fill:#FFFFFF;" d="M121.226,297.517L121.226,297.517c0-0.917,0.75-1.667,1.667-1.667h18.434
					c0.917,0,1.667,0.75,1.667,1.667l0,0c0,0.917-0.75,1.667-1.667,1.667l-18.434,0
					C121.976,299.185,121.226,298.435,121.226,297.517z"/>
			</g>
			<g>
				<path style="fill:#ABAB8E;" d="M179.181,311.584h-12.419c-1.482,0-2.684-1.202-2.684-2.684v-22.764
					c0-1.482,1.202-2.684,2.684-2.684h12.419c1.482,0,2.684,1.202,2.684,2.684V308.9
					C181.866,310.382,180.664,311.584,179.181,311.584z"/>
				<rect x="166.592" y="286.515" style="fill:#008ABA;" width="12.759" height="22.005"/>
				<rect x="167.636" y="287.951" style="fill:#00ACE9;" width="10.672" height="19.133"/>
				<path style="fill:#DEDEC8;" d="M172.972,310.556L172.972,310.556c-0.653,0-1.188-0.535-1.188-1.188v-23.701
					c0-0.654,0.535-1.188,1.188-1.188l0,0c0.654,0,1.188,0.535,1.188,1.188v23.701C174.16,310.022,173.625,310.556,172.972,310.556z
					"/>
				<path style="fill:#DEDEC8;" d="M165.216,297.746v-0.456c0-0.761,0.623-1.384,1.384-1.384h12.743
					c0.761,0,1.384,0.623,1.384,1.384v0.456c0,0.761-0.623,1.384-1.384,1.384H166.6C165.839,299.13,165.216,298.507,165.216,297.746
					z"/>
			</g>
		</g>
		<g>
			<path style="fill:#80D4F2;" d="M268.949,112.502H209.31c-5.727,0-10.413-4.686-10.413-10.413l0,0
				c0-5.728,4.686-10.414,10.413-10.414h59.639c5.727,0,10.414,4.686,10.414,10.414l0,0
				C279.362,107.816,274.676,112.502,268.949,112.502z"/>
			<path style="fill:#80D4F2;" d="M221.907,104.726L221.907,104.726c-5.07,0-9.218-4.148-9.218-9.218V87.85
				c0-5.07,4.148-9.218,9.218-9.218l0,0c5.07,0,9.218,4.148,9.218,9.218v7.658C231.126,100.577,226.978,104.726,221.907,104.726z"/>
			<path style="fill:#80D4F2;" d="M258.224,104.726L258.224,104.726c-5.07,0-9.218-4.148-9.218-9.218V87.85
				c0-5.07,4.148-9.218,9.218-9.218l0,0c5.07,0,9.218,4.148,9.218,9.218v7.658C267.442,100.577,263.294,104.726,258.224,104.726z"/>
			<path style="fill:#80D4F2;" d="M240.9,104.726L240.9,104.726c-7.131,0-12.965-5.834-12.965-12.965v-10.77
				c0-7.131,5.834-12.965,12.965-12.965h0c7.131,0,12.965,5.834,12.965,12.965v10.77C253.865,98.891,248.031,104.726,240.9,104.726z
				"/>
		</g>
		<g>
			<path style="fill:#47C1ED;" d="M93.579,220.269H33.941c-5.727,0-10.413-4.686-10.413-10.413v0
				c0-5.727,4.686-10.413,10.413-10.413h59.639c5.727,0,10.413,4.686,10.413,10.413v0
				C103.993,215.583,99.307,220.269,93.579,220.269z"/>
			<path style="fill:#47C1ED;" d="M46.538,212.493L46.538,212.493c-5.07,0-9.218-4.148-9.218-9.218v-7.658
				c0-5.07,4.148-9.218,9.218-9.218l0,0c5.07,0,9.218,4.148,9.218,9.218v7.658C55.756,208.344,51.608,212.493,46.538,212.493z"/>
			<path style="fill:#47C1ED;" d="M82.854,212.493L82.854,212.493c-5.07,0-9.218-4.148-9.218-9.218v-7.658
				c0-5.07,4.148-9.218,9.218-9.218l0,0c5.07,0,9.218,4.148,9.218,9.218v7.658C92.073,208.344,87.924,212.493,82.854,212.493z"/>
			<path style="fill:#47C1ED;" d="M65.531,212.493L65.531,212.493c-7.131,0-12.965-5.834-12.965-12.965v-10.77
				c0-7.131,5.834-12.965,12.965-12.965l0,0c7.131,0,12.965,5.834,12.965,12.965v10.77
				C78.495,206.658,72.661,212.493,65.531,212.493z"/>
		</g>
		<g>
			<path style="fill:#47C1ED;" d="M400.445,287.922h-48.394c-4.647,0-8.45-3.802-8.45-8.45l0,0c0-4.648,3.802-8.45,8.45-8.45h48.394
				c4.647,0,8.45,3.802,8.45,8.45l0,0C408.895,284.119,405.092,287.922,400.445,287.922z"/>
			<path style="fill:#47C1ED;" d="M362.273,281.612L362.273,281.612c-4.114,0-7.48-3.366-7.48-7.48v-6.214
				c0-4.114,3.366-7.48,7.48-7.48l0,0c4.114,0,7.48,3.366,7.48,7.48v6.214C369.753,278.246,366.387,281.612,362.273,281.612z"/>
			<path style="fill:#47C1ED;" d="M391.742,281.612L391.742,281.612c-4.114,0-7.48-3.366-7.48-7.48v-6.214
				c0-4.114,3.366-7.48,7.48-7.48l0,0c4.114,0,7.48,3.366,7.48,7.48v6.214C399.222,278.246,395.856,281.612,391.742,281.612z"/>
			<path style="fill:#47C1ED;" d="M377.685,281.612L377.685,281.612c-5.786,0-10.52-4.734-10.52-10.52v-8.739
				c0-5.786,4.734-10.52,10.52-10.52l0,0c5.786,0,10.52,4.734,10.52,10.52v8.739C388.205,276.878,383.471,281.612,377.685,281.612z"
				/>
		</g>
		<g>
			<path style="fill:#47C1ED;" d="M217.433,191.269h-48.394c-4.647,0-8.45-3.803-8.45-8.45l0,0c0-4.648,3.803-8.45,8.45-8.45h48.394
				c4.648,0,8.45,3.802,8.45,8.45l0,0C225.883,187.466,222.081,191.269,217.433,191.269z"/>
			<path style="fill:#47C1ED;" d="M179.262,184.959L179.262,184.959c-4.114,0-7.48-3.366-7.48-7.48v-6.214
				c0-4.114,3.366-7.48,7.48-7.48l0,0c4.114,0,7.48,3.366,7.48,7.48v6.214C186.742,181.593,183.376,184.959,179.262,184.959z"/>
			<path style="fill:#47C1ED;" d="M208.73,184.959L208.73,184.959c-4.114,0-7.48-3.366-7.48-7.48v-6.214
				c0-4.114,3.366-7.48,7.48-7.48h0c4.114,0,7.48,3.366,7.48,7.48v6.214C216.211,181.593,212.845,184.959,208.73,184.959z"/>
			<path style="fill:#47C1ED;" d="M194.673,184.959L194.673,184.959c-5.786,0-10.52-4.734-10.52-10.52v-8.739
				c0-5.786,4.734-10.52,10.52-10.52l0,0c5.786,0,10.52,4.734,10.52,10.52v8.739C205.194,180.225,200.459,184.959,194.673,184.959z"
				/>
		</g>
		<g>
			<path style="fill:#47C1ED;" d="M367.364,150.27h70.079c5.727,0,10.413-4.686,10.413-10.414l0,0
				c0-5.727-4.686-10.413-10.413-10.413h-70.079c-5.727,0-10.413,4.686-10.413,10.413l0,0
				C356.951,145.584,361.637,150.27,367.364,150.27z"/>
			<path style="fill:#47C1ED;" d="M419.054,145.172L419.054,145.172c5.588,0,10.16-4.572,10.16-10.16v-8.439
				c0-5.588-4.572-10.16-10.16-10.16l0,0c-5.588,0-10.159,4.572-10.159,10.16v8.439
				C408.895,140.601,413.467,145.172,419.054,145.172z"/>
			<path style="fill:#47C1ED;" d="M379.03,145.172L379.03,145.172c5.588,0,10.16-4.572,10.16-10.16v-8.439
				c0-5.588-4.572-10.16-10.16-10.16l0,0c-5.588,0-10.159,4.572-10.159,10.16v8.439C368.871,140.601,373.443,145.172,379.03,145.172
				z"/>
			<path style="fill:#47C1ED;" d="M398.123,145.172L398.123,145.172c7.859,0,14.289-6.43,14.289-14.289v-11.87
				c0-7.859-6.43-14.289-14.289-14.289h0c-7.859,0-14.289,6.43-14.289,14.289v11.87
				C383.834,138.743,390.264,145.172,398.123,145.172z"/>
		</g>
		<path style="fill:#9AB600;" d="M289.832,343.397h-78.29c-2.596,0-4.72-2.124-4.72-4.72v-8.953c0-2.596,2.124-4.72,4.72-4.72h78.29
			c2.596,0,4.72,2.124,4.72,4.72v8.953C294.552,341.273,292.428,343.397,289.832,343.397z"/>
		<g>
			<path style="fill:#9E673E;" d="M286.865,341.118h-72.357c-2.153,0-3.914-1.761-3.914-3.914v-6.008
				c0-2.153,1.761-3.914,3.914-3.914h72.357c2.153,0,3.914,1.761,3.914,3.914v6.008
				C290.779,339.357,289.018,341.118,286.865,341.118z"/>
			<path style="fill:#BD7D4E;" d="M285.4,339.817h-69.426c-1.892,0-3.44-1.548-3.44-3.441v-4.353c0-1.892,1.548-3.441,3.44-3.441
				H285.4c1.892,0,3.44,1.548,3.44,3.441v4.353C288.84,338.269,287.292,339.817,285.4,339.817z"/>
			<path style="fill:#9E673E;" d="M225.296,341.118L225.296,341.118c-0.706,0-1.283-0.577-1.283-1.283v-11.27
				c0-0.706,0.577-1.283,1.283-1.283l0,0c0.706,0,1.283,0.577,1.283,1.283v11.27C226.579,340.54,226.002,341.118,225.296,341.118z"
				/>
			<path style="fill:#9E673E;" d="M242.617,341.118L242.617,341.118c-0.706,0-1.283-0.577-1.283-1.283v-11.27
				c0-0.706,0.577-1.283,1.283-1.283l0,0c0.706,0,1.283,0.577,1.283,1.283v11.27C243.9,340.54,243.322,341.118,242.617,341.118z"/>
			<path style="fill:#9E673E;" d="M259.938,341.118L259.938,341.118c-0.706,0-1.283-0.577-1.283-1.283v-11.27
				c0-0.706,0.577-1.283,1.283-1.283l0,0c0.706,0,1.283,0.577,1.283,1.283v11.27C261.22,340.54,260.643,341.118,259.938,341.118z"/>
			<path style="fill:#9E673E;" d="M277.258,341.118L277.258,341.118c-0.706,0-1.283-0.577-1.283-1.283v-11.27
				c0-0.706,0.577-1.283,1.283-1.283l0,0c0.706,0,1.283,0.577,1.283,1.283v11.27C278.541,340.54,277.964,341.118,277.258,341.118z"
				/>
		</g>
		<g>
			<g>
				<polygon style="fill:#FFFFFF;" points="218.998,299.34 215.27,294.938 211.542,299.34 211.542,325.003 218.998,325.003 				"/>
				<polygon style="fill:#FFFFFF;" points="233.354,299.34 229.626,294.938 225.898,299.34 225.898,325.003 233.354,325.003 				"/>
				<polygon style="fill:#FFFFFF;" points="247.71,299.34 243.983,294.938 240.255,299.34 240.255,325.003 247.71,325.003 				"/>
				<polygon style="fill:#FFFFFF;" points="262.067,299.34 258.339,294.938 254.611,299.34 254.611,325.003 262.067,325.003 				"/>
				<polygon style="fill:#FFFFFF;" points="276.423,299.34 272.695,294.938 268.967,299.34 268.967,325.003 276.423,325.003 				"/>
				<rect x="205.89" y="305.015" style="fill:#FFFFFF;" width="90.774" height="2.456"/>
				<rect x="205.89" y="315.697" style="fill:#FFFFFF;" width="90.774" height="2.456"/>
				<polygon style="fill:#FFFFFF;" points="290.779,299.34 287.051,294.938 283.323,299.34 283.323,325.003 290.779,325.003 				"/>
			</g>
			<polygon style="fill:#E6E6E6;" points="298.28,304.076 296.416,299.674 294.552,304.076 294.552,329.739 298.28,329.739 			"/>
			<polygon style="fill:#FFFFFF;" points="298.28,314.372 296.416,309.971 294.552,314.372 294.552,340.035 298.28,340.035 			"/>
			<polygon style="fill:#E6E6E6;" points="206.822,304.076 204.958,299.674 203.094,304.076 203.094,329.739 206.822,329.739 			"/>
			<polygon style="fill:#FFFFFF;" points="206.822,314.372 204.958,309.971 203.094,314.372 203.094,340.035 206.822,340.035 			"/>
		</g>
	</g>
</g>
<g id="DESIGNED_BY_FREEPIK">
	<g id="XMLID_76_">
		<g id="XMLID_929_">
			<path id="XMLID_958_" style="fill:#44BEE9;" d="M181.087,472.134c-0.246,0-0.435,0.085-0.567,0.255
				c-0.133,0.17-0.199,0.421-0.199,0.753v2.393c-0.304-0.332-0.617-0.579-0.937-0.739c-0.321-0.159-0.715-0.24-1.182-0.24
				c-0.807,0-1.458,0.283-1.953,0.849c-0.494,0.566-0.742,1.355-0.742,2.369c0,0.479,0.063,0.923,0.188,1.335
				c0.124,0.412,0.307,0.77,0.549,1.074c0.241,0.305,0.526,0.539,0.857,0.703c0.33,0.164,0.689,0.246,1.078,0.246
				c0.293,0,0.563-0.04,0.809-0.122c0.247-0.08,0.477-0.199,0.689-0.356c0.212-0.155,0.426-0.358,0.644-0.607v0.16
				c0,0.297,0.072,0.525,0.217,0.685c0.145,0.16,0.328,0.24,0.549,0.24c0.226,0,0.409-0.077,0.552-0.231
				c0.143-0.154,0.213-0.386,0.213-0.694v-7.147c0-0.305-0.066-0.534-0.199-0.69C181.52,472.212,181.332,472.134,181.087,472.134z
				 M180.021,478.975c-0.141,0.306-0.329,0.533-0.563,0.682c-0.236,0.148-0.496,0.223-0.781,0.223c-0.28,0-0.539-0.078-0.777-0.236
				c-0.237-0.154-0.424-0.387-0.561-0.695c-0.136-0.31-0.205-0.683-0.205-1.122c0-0.415,0.063-0.78,0.193-1.096
				c0.128-0.314,0.31-0.556,0.543-0.724c0.233-0.168,0.499-0.252,0.795-0.252c0.285,0,0.547,0.082,0.787,0.245
				c0.239,0.165,0.429,0.402,0.569,0.713c0.141,0.311,0.21,0.682,0.21,1.113C180.232,478.283,180.163,478.667,180.021,478.975z"/>
			<path id="XMLID_954_" style="fill:#44BEE9;" d="M188.452,478.054c0.233-0.122,0.35-0.385,0.35-0.793
				c0-0.438-0.113-0.87-0.338-1.294c-0.225-0.423-0.564-0.769-1.019-1.035c-0.453-0.268-0.996-0.399-1.628-0.399
				c-0.487,0-0.93,0.077-1.33,0.233c-0.4,0.156-0.737,0.381-1.01,0.674c-0.272,0.293-0.48,0.643-0.623,1.054
				c-0.143,0.409-0.213,0.853-0.213,1.332c0,1.017,0.289,1.822,0.867,2.415c0.577,0.593,1.387,0.891,2.427,0.891
				c0.456,0,0.858-0.06,1.207-0.178c0.352-0.12,0.641-0.268,0.874-0.448c0.231-0.181,0.404-0.368,0.519-0.565
				c0.115-0.196,0.172-0.366,0.172-0.514c0-0.166-0.052-0.294-0.155-0.386c-0.103-0.09-0.237-0.137-0.403-0.137
				c-0.154,0-0.273,0.036-0.356,0.107c-0.203,0.19-0.366,0.34-0.492,0.451s-0.265,0.216-0.415,0.313
				c-0.15,0.098-0.305,0.167-0.466,0.214c-0.16,0.044-0.337,0.067-0.531,0.067c-0.289,0-0.553-0.07-0.792-0.213
				c-0.239-0.143-0.432-0.355-0.576-0.636c-0.144-0.281-0.219-0.605-0.222-0.974h3.168
				C187.89,478.234,188.219,478.174,188.452,478.054z M184.297,477.315c0.055-0.547,0.212-0.96,0.472-1.238
				c0.259-0.28,0.59-0.418,0.994-0.418c0.423,0,0.764,0.137,1.024,0.411c0.259,0.275,0.409,0.69,0.448,1.245H184.297z"/>
			<path id="XMLID_952_" style="fill:#44BEE9;" d="M193.878,477.617c-0.319-0.17-0.729-0.316-1.231-0.439
				c-0.424-0.104-0.756-0.19-0.997-0.261c-0.242-0.07-0.434-0.161-0.576-0.27c-0.143-0.108-0.213-0.247-0.213-0.418
				c0-0.186,0.097-0.342,0.291-0.465c0.194-0.126,0.437-0.188,0.73-0.188c0.286,0,0.511,0.047,0.677,0.142
				c0.166,0.096,0.31,0.223,0.433,0.381c0.151,0.189,0.284,0.331,0.401,0.426c0.116,0.096,0.258,0.144,0.424,0.144
				c0.23,0,0.407-0.061,0.532-0.178c0.124-0.119,0.187-0.271,0.187-0.457c0-0.171-0.058-0.345-0.175-0.523
				c-0.116-0.178-0.286-0.34-0.51-0.485c-0.223-0.147-0.502-0.265-0.837-0.351c-0.333-0.088-0.71-0.131-1.13-0.131
				c-0.535,0-0.99,0.085-1.367,0.259c-0.378,0.172-0.665,0.402-0.859,0.69c-0.194,0.289-0.291,0.597-0.291,0.92
				c0,0.364,0.105,0.671,0.315,0.921c0.21,0.249,0.489,0.45,0.839,0.602c0.351,0.152,0.804,0.298,1.362,0.435
				c0.494,0.12,0.849,0.244,1.066,0.375c0.216,0.131,0.323,0.338,0.323,0.622c0,0.187-0.104,0.352-0.311,0.497
				c-0.208,0.144-0.474,0.216-0.798,0.216c-0.4,0-0.715-0.07-0.947-0.213c-0.232-0.144-0.431-0.357-0.597-0.647
				c-0.082-0.149-0.169-0.267-0.261-0.351c-0.091-0.082-0.221-0.124-0.39-0.124c-0.194,0-0.355,0.064-0.481,0.19
				c-0.128,0.126-0.191,0.278-0.191,0.456c0,0.27,0.099,0.537,0.296,0.805c0.198,0.267,0.505,0.489,0.92,0.667
				c0.415,0.179,0.914,0.268,1.495,0.268c0.609,0,1.127-0.082,1.552-0.246c0.425-0.164,0.747-0.405,0.964-0.725
				c0.218-0.318,0.326-0.701,0.326-1.148c0-0.297-0.081-0.56-0.246-0.792C194.438,477.988,194.196,477.787,193.878,477.617z"/>
			<path id="XMLID_950_" style="fill:#44BEE9;" d="M196.486,474.543c-0.238,0-0.431,0.081-0.579,0.243
				c-0.149,0.162-0.222,0.404-0.222,0.724v4.636c0,0.316,0.073,0.56,0.222,0.73c0.148,0.17,0.341,0.255,0.579,0.255
				c0.238,0,0.433-0.083,0.588-0.249c0.154-0.166,0.232-0.412,0.232-0.736v-4.683c0-0.288-0.078-0.515-0.232-0.677
				C196.919,474.624,196.724,474.543,196.486,474.543z"/>
			<path id="XMLID_949_" style="fill:#44BEE9;" d="M196.504,472.204c-0.217,0-0.409,0.073-0.573,0.223
				c-0.165,0.149-0.246,0.337-0.246,0.567c0,0.254,0.08,0.449,0.24,0.588c0.16,0.138,0.353,0.208,0.579,0.208
				c0.217,0,0.405-0.071,0.563-0.212c0.158-0.14,0.238-0.335,0.238-0.584c0-0.258-0.081-0.453-0.244-0.588
				C196.9,472.272,196.714,472.204,196.504,472.204z"/>
			<path id="XMLID_945_" style="fill:#44BEE9;" d="M203.626,474.543c-0.217,0-0.396,0.077-0.535,0.231
				c-0.139,0.154-0.208,0.372-0.208,0.652v0.221c-0.289-0.376-0.602-0.651-0.938-0.829c-0.337-0.175-0.734-0.264-1.193-0.264
				c-0.384,0-0.736,0.068-1.056,0.204c-0.321,0.138-0.604,0.34-0.849,0.609c-0.245,0.268-0.433,0.599-0.566,0.991
				c-0.133,0.392-0.199,0.831-0.199,1.317c0,0.653,0.108,1.228,0.327,1.728c0.217,0.498,0.529,0.886,0.934,1.163
				c0.406,0.276,0.88,0.415,1.422,0.415c0.45,0,0.839-0.091,1.166-0.272c0.327-0.182,0.614-0.447,0.864-0.797
				c-0.008,0.531-0.02,0.916-0.036,1.155c-0.016,0.24-0.07,0.465-0.164,0.674c-0.093,0.209-0.255,0.373-0.486,0.489
				c-0.232,0.117-0.557,0.176-0.977,0.176c-0.205,0-0.387-0.02-0.545-0.057c-0.159-0.038-0.294-0.095-0.406-0.171
				c-0.112-0.078-0.216-0.171-0.309-0.28c-0.093-0.108-0.183-0.217-0.27-0.323c-0.178-0.21-0.386-0.315-0.624-0.315
				c-0.189,0-0.352,0.062-0.486,0.188c-0.135,0.123-0.202,0.284-0.202,0.482c0,0.262,0.119,0.516,0.356,0.764
				c0.238,0.247,0.576,0.448,1.014,0.605c0.439,0.155,0.938,0.233,1.496,0.233c0.609,0,1.119-0.061,1.528-0.184
				c0.409-0.122,0.741-0.311,0.994-0.563c0.253-0.254,0.438-0.574,0.551-0.961c0.115-0.389,0.173-0.852,0.173-1.39v-4.706
				c0-0.384-0.051-0.678-0.155-0.882C204.146,474.646,203.938,474.543,203.626,474.543z M202.6,478.908
				c-0.151,0.291-0.346,0.508-0.586,0.653c-0.239,0.144-0.493,0.217-0.762,0.217c-0.455,0-0.826-0.168-1.113-0.505
				c-0.287-0.336-0.431-0.834-0.431-1.49c0-0.648,0.139-1.149,0.419-1.501c0.279-0.352,0.649-0.528,1.113-0.528
				c0.475,0,0.858,0.184,1.148,0.553c0.291,0.367,0.437,0.882,0.437,1.542C202.825,478.265,202.749,478.617,202.6,478.908z"/>
			<path id="XMLID_944_" style="fill:#44BEE9;" d="M210.978,475.61c-0.165-0.339-0.418-0.602-0.753-0.788
				c-0.337-0.187-0.718-0.279-1.146-0.279c-0.439,0-0.828,0.088-1.166,0.264c-0.338,0.177-0.65,0.452-0.935,0.828v-0.195
				c0-0.193-0.034-0.358-0.104-0.493c-0.069-0.134-0.162-0.234-0.276-0.302c-0.114-0.068-0.244-0.102-0.387-0.102
				c-0.233,0-0.416,0.076-0.552,0.229c-0.134,0.152-0.201,0.383-0.201,0.691v4.683c0,0.316,0.076,0.56,0.226,0.73
				c0.15,0.17,0.342,0.255,0.576,0.255c0.241,0,0.438-0.082,0.59-0.246c0.152-0.164,0.228-0.411,0.228-0.739v-2.03
				c0-0.66,0.04-1.11,0.119-1.353c0.11-0.3,0.284-0.537,0.522-0.71c0.237-0.172,0.5-0.258,0.788-0.258
				c0.444,0,0.74,0.143,0.888,0.425c0.148,0.282,0.223,0.691,0.223,1.226v2.7c0,0.316,0.074,0.56,0.226,0.73
				c0.15,0.17,0.346,0.255,0.587,0.255c0.238,0,0.431-0.083,0.578-0.249c0.149-0.166,0.224-0.412,0.224-0.736v-3.016
				c0-0.357-0.017-0.648-0.048-0.878C211.155,476.023,211.085,475.809,210.978,475.61z"/>
			<path id="XMLID_939_" style="fill:#44BEE9;" d="M217.821,478.054c0.233-0.122,0.35-0.385,0.35-0.793
				c0-0.438-0.113-0.87-0.338-1.294c-0.226-0.423-0.565-0.769-1.019-1.035c-0.453-0.268-0.996-0.399-1.628-0.399
				c-0.487,0-0.93,0.077-1.33,0.233c-0.4,0.156-0.736,0.381-1.009,0.674c-0.273,0.293-0.481,0.643-0.624,1.054
				c-0.142,0.409-0.213,0.853-0.213,1.332c0,1.017,0.289,1.822,0.866,2.415c0.578,0.593,1.387,0.891,2.428,0.891
				c0.455,0,0.858-0.06,1.208-0.178c0.351-0.12,0.64-0.268,0.872-0.448c0.232-0.181,0.405-0.368,0.52-0.565
				c0.114-0.196,0.172-0.366,0.172-0.514c0-0.166-0.051-0.294-0.154-0.386c-0.103-0.09-0.238-0.137-0.404-0.137
				c-0.154,0-0.273,0.036-0.356,0.107c-0.201,0.19-0.366,0.34-0.492,0.451c-0.128,0.111-0.266,0.216-0.415,0.313
				c-0.151,0.098-0.307,0.167-0.466,0.214c-0.161,0.044-0.338,0.067-0.532,0.067c-0.288,0-0.553-0.07-0.792-0.213
				c-0.239-0.143-0.431-0.355-0.575-0.636c-0.145-0.281-0.219-0.605-0.223-0.974h3.169
				C217.26,478.234,217.588,478.174,217.821,478.054z M213.666,477.315c0.056-0.547,0.212-0.96,0.471-1.238
				c0.259-0.28,0.591-0.418,0.995-0.418c0.423,0,0.765,0.137,1.024,0.411c0.259,0.275,0.409,0.69,0.448,1.245H213.666z"/>
			<path id="XMLID_936_" style="fill:#44BEE9;" d="M224.206,472.134c-0.245,0-0.434,0.085-0.567,0.255
				c-0.132,0.17-0.199,0.421-0.199,0.753v2.393c-0.304-0.332-0.617-0.579-0.938-0.739c-0.32-0.159-0.714-0.24-1.181-0.24
				c-0.808,0-1.458,0.283-1.953,0.849c-0.495,0.566-0.741,1.355-0.741,2.369c0,0.479,0.062,0.923,0.187,1.335
				c0.125,0.412,0.308,0.77,0.549,1.074c0.241,0.305,0.527,0.539,0.857,0.703c0.33,0.164,0.689,0.246,1.077,0.246
				c0.293,0,0.563-0.04,0.81-0.122c0.248-0.08,0.476-0.199,0.689-0.356c0.211-0.155,0.426-0.358,0.643-0.607v0.16
				c0,0.297,0.072,0.525,0.217,0.685c0.145,0.16,0.328,0.24,0.549,0.24c0.226,0,0.41-0.077,0.552-0.231
				c0.143-0.154,0.213-0.386,0.213-0.694v-7.147c0-0.305-0.065-0.534-0.199-0.69C224.641,472.212,224.452,472.134,224.206,472.134z
				 M223.141,478.975c-0.14,0.306-0.328,0.533-0.564,0.682c-0.235,0.148-0.495,0.223-0.781,0.223c-0.281,0-0.54-0.078-0.776-0.236
				c-0.238-0.154-0.425-0.387-0.562-0.695c-0.137-0.31-0.205-0.683-0.205-1.122c0-0.415,0.064-0.78,0.193-1.096
				c0.129-0.314,0.31-0.556,0.543-0.724c0.233-0.168,0.499-0.252,0.795-0.252c0.285,0,0.547,0.082,0.787,0.245
				c0.239,0.165,0.43,0.402,0.57,0.713c0.14,0.311,0.21,0.682,0.21,1.113C223.352,478.283,223.281,478.667,223.141,478.975z"/>
			<path id="XMLID_933_" style="fill:#44BEE9;" d="M233.586,474.938c-0.406-0.255-0.877-0.383-1.415-0.383
				c-0.467,0-0.859,0.084-1.175,0.252c-0.317,0.168-0.627,0.411-0.932,0.728v-2.476c0-0.297-0.068-0.524-0.202-0.686
				c-0.135-0.159-0.326-0.239-0.576-0.239c-0.237,0-0.423,0.084-0.555,0.252c-0.133,0.168-0.198,0.416-0.198,0.744v7.075
				c0,0.305,0.068,0.535,0.205,0.692c0.136,0.156,0.319,0.233,0.549,0.233c0.226,0,0.412-0.077,0.558-0.233
				c0.146-0.157,0.22-0.388,0.22-0.692v-0.16c0.178,0.205,0.322,0.36,0.43,0.463c0.109,0.103,0.241,0.203,0.395,0.3
				c0.154,0.098,0.341,0.175,0.561,0.234c0.22,0.06,0.454,0.089,0.704,0.089c0.407,0,0.781-0.082,1.119-0.246
				c0.338-0.164,0.626-0.397,0.864-0.698c0.237-0.3,0.418-0.655,0.543-1.064c0.124-0.41,0.187-0.859,0.187-1.35
				c0-0.665-0.112-1.241-0.336-1.725C234.305,475.564,233.991,475.193,233.586,474.938z M232.796,479.348
				c-0.295,0.354-0.646,0.531-1.053,0.531c-0.479,0-0.866-0.174-1.161-0.521c-0.295-0.346-0.442-0.841-0.442-1.486
				c0-0.44,0.069-0.818,0.207-1.136c0.138-0.319,0.328-0.563,0.57-0.73c0.24-0.168,0.516-0.252,0.825-0.252
				c0.3,0,0.563,0.084,0.789,0.252c0.225,0.168,0.399,0.406,0.521,0.716c0.123,0.308,0.184,0.677,0.184,1.103
				C233.238,478.486,233.09,478.993,232.796,479.348z"/>
			<path id="XMLID_931_" style="fill:#44BEE9;" d="M240.529,474.641c-0.112-0.065-0.23-0.098-0.353-0.098
				c-0.171,0-0.302,0.029-0.395,0.09c-0.093,0.058-0.181,0.173-0.264,0.344c-0.083,0.17-0.176,0.406-0.279,0.705l-1.3,3.71
				l-1.371-3.988c-0.091-0.277-0.195-0.489-0.314-0.638c-0.119-0.148-0.295-0.223-0.529-0.223c-0.135,0-0.264,0.035-0.389,0.107
				c-0.124,0.07-0.222,0.166-0.294,0.285c-0.071,0.117-0.107,0.246-0.107,0.385c0,0.131,0.062,0.341,0.184,0.629l1.995,5.022
				l-0.148,0.362c-0.111,0.265-0.208,0.466-0.294,0.601c-0.085,0.139-0.181,0.234-0.288,0.289c-0.107,0.056-0.254,0.084-0.44,0.084
				c-0.075,0-0.163-0.013-0.266-0.036c-0.083-0.024-0.168-0.036-0.256-0.036c-0.221,0-0.388,0.051-0.501,0.151
				c-0.113,0.101-0.169,0.245-0.169,0.431c0,0.272,0.119,0.461,0.356,0.564c0.237,0.103,0.593,0.153,1.068,0.153
				c0.487,0,0.873-0.073,1.161-0.223c0.287-0.147,0.517-0.361,0.691-0.638c0.174-0.277,0.353-0.659,0.535-1.146l2.113-5.531
				c0.051-0.143,0.095-0.283,0.13-0.421c0.037-0.14,0.061-0.246,0.078-0.321c0-0.123-0.032-0.239-0.093-0.35
				C240.729,474.794,240.642,474.706,240.529,474.641z"/>
		</g>
		<g id="XMLID_365_">
			<g id="XMLID_380_">
				<path id="XMLID_928_" style="fill:#44BEE9;" d="M262.93,472.129c-0.533,0-0.954,0.068-1.26,0.204
					c-0.308,0.137-0.527,0.354-0.654,0.652c-0.13,0.301-0.191,0.702-0.191,1.211v0.487h-0.387c-0.543,0-0.815,0.191-0.815,0.582
					c0,0.174,0.065,0.315,0.196,0.423c0.132,0.111,0.316,0.164,0.559,0.164h0.446v4.294c0,0.318,0.074,0.563,0.228,0.729
					c0.154,0.17,0.344,0.254,0.573,0.254c0.243,0,0.438-0.084,0.589-0.254c0.155-0.167,0.23-0.411,0.23-0.729v-4.294h0.396
					c0.291,0,0.517-0.035,0.681-0.107c0.166-0.071,0.245-0.24,0.245-0.503c0-0.373-0.307-0.559-0.926-0.559h-0.396v-0.387
					c0-0.321,0.043-0.567,0.122-0.739c0.087-0.172,0.273-0.26,0.565-0.26c0.108,0,0.241,0.014,0.39,0.034
					c0.155,0.026,0.268,0.038,0.33,0.038c0.134,0,0.252-0.055,0.348-0.16c0.102-0.107,0.15-0.235,0.15-0.385
					C264.35,472.358,263.879,472.129,262.93,472.129z"/>
				<path id="XMLID_926_" style="fill:#44BEE9;" d="M268.089,474.795c-0.32-0.171-0.648-0.255-0.99-0.255
					c-0.342,0-0.61,0.084-0.818,0.255c-0.202,0.171-0.4,0.421-0.592,0.755c-0.015-0.334-0.08-0.584-0.199-0.755
					c-0.119-0.171-0.313-0.255-0.583-0.255c-0.525,0-0.788,0.364-0.788,1.093v4.514c0,0.323,0.078,0.568,0.226,0.732
					c0.149,0.169,0.34,0.251,0.579,0.251c0.236,0,0.432-0.081,0.586-0.247c0.15-0.163,0.233-0.41,0.233-0.736v-1.356
					c0-0.486,0.014-0.899,0.045-1.238c0.033-0.337,0.09-0.631,0.17-0.878c0.084-0.243,0.201-0.425,0.353-0.554
					c0.149-0.122,0.345-0.186,0.582-0.186c0.172,0,0.374,0.036,0.602,0.108c0.227,0.073,0.371,0.112,0.434,0.112
					c0.157,0,0.304-0.064,0.44-0.194c0.135-0.126,0.204-0.292,0.204-0.488C268.571,475.192,268.411,474.966,268.089,474.795z"/>
				<path id="XMLID_922_" style="fill:#44BEE9;" d="M274.176,478.052c0.233-0.122,0.351-0.385,0.351-0.791
					c0-0.44-0.112-0.87-0.339-1.296c-0.222-0.423-0.565-0.77-1.018-1.033c-0.453-0.27-0.997-0.403-1.629-0.403
					c-0.488,0-0.931,0.078-1.329,0.232c-0.402,0.157-0.735,0.381-1.008,0.675c-0.275,0.295-0.484,0.644-0.624,1.055
					c-0.145,0.41-0.218,0.854-0.218,1.333c0,1.017,0.293,1.823,0.87,2.418c0.576,0.593,1.385,0.889,2.429,0.889
					c0.453,0,0.857-0.061,1.207-0.179c0.349-0.117,0.64-0.269,0.874-0.446c0.232-0.182,0.404-0.368,0.522-0.566
					c0.111-0.194,0.167-0.365,0.167-0.512c0-0.167-0.048-0.294-0.152-0.386c-0.104-0.093-0.237-0.139-0.405-0.139
					c-0.152,0-0.271,0.038-0.355,0.108c-0.202,0.189-0.367,0.34-0.493,0.449c-0.128,0.113-0.264,0.218-0.415,0.313
					c-0.15,0.097-0.307,0.17-0.466,0.213c-0.16,0.048-0.336,0.069-0.531,0.069c-0.29,0-0.552-0.07-0.792-0.212
					c-0.24-0.145-0.431-0.357-0.578-0.636c-0.145-0.28-0.216-0.606-0.222-0.974h3.171
					C273.615,478.233,273.942,478.173,274.176,478.052z M270.02,477.313c0.055-0.546,0.213-0.957,0.472-1.236
					c0.26-0.28,0.592-0.418,0.995-0.418c0.426,0,0.764,0.136,1.024,0.412c0.261,0.273,0.407,0.688,0.446,1.242H270.02z"/>
				<path id="XMLID_919_" style="fill:#44BEE9;" d="M280.916,478.052c0.232-0.122,0.352-0.385,0.352-0.791
					c0-0.44-0.116-0.87-0.341-1.296c-0.222-0.423-0.564-0.77-1.013-1.033c-0.46-0.27-1.003-0.403-1.634-0.403
					c-0.486,0-0.932,0.078-1.33,0.232c-0.4,0.157-0.736,0.381-1.009,0.675c-0.273,0.295-0.48,0.644-0.622,1.055
					c-0.145,0.41-0.218,0.854-0.218,1.333c0,1.017,0.291,1.823,0.868,2.418c0.58,0.593,1.387,0.889,2.43,0.889
					c0.453,0,0.859-0.061,1.208-0.179c0.348-0.117,0.641-0.269,0.872-0.446c0.234-0.182,0.408-0.368,0.518-0.566
					c0.116-0.194,0.171-0.365,0.171-0.512c0-0.167-0.047-0.294-0.15-0.386c-0.104-0.093-0.238-0.139-0.406-0.139
					c-0.151,0-0.27,0.038-0.355,0.108c-0.202,0.189-0.367,0.34-0.492,0.449c-0.127,0.113-0.264,0.218-0.415,0.313
					c-0.152,0.097-0.307,0.17-0.469,0.213c-0.157,0.048-0.335,0.069-0.527,0.069c-0.291,0-0.556-0.07-0.795-0.212
					c-0.238-0.145-0.431-0.357-0.575-0.636c-0.144-0.28-0.218-0.606-0.222-0.974h3.17
					C280.354,478.233,280.682,478.173,280.916,478.052z M276.762,477.313c0.053-0.546,0.211-0.957,0.47-1.236
					c0.261-0.28,0.592-0.418,0.995-0.418c0.425,0,0.764,0.136,1.026,0.412c0.257,0.273,0.407,0.688,0.446,1.242H276.762z"/>
				<path id="XMLID_390_" style="fill:#44BEE9;" d="M286.927,474.938c-0.42-0.257-0.883-0.387-1.379-0.387
					c-0.415,0-0.79,0.09-1.114,0.268c-0.331,0.176-0.648,0.452-0.952,0.827v-0.194c0-0.297-0.071-0.52-0.218-0.678
					c-0.144-0.155-0.329-0.233-0.56-0.233c-0.233,0-0.419,0.078-0.554,0.228c-0.133,0.154-0.199,0.382-0.199,0.691v6.995
					c0,0.354,0.051,0.62,0.145,0.807c0.102,0.183,0.301,0.274,0.607,0.274c0.517,0,0.777-0.358,0.777-1.068v-2.434
					c0.286,0.358,0.586,0.635,0.9,0.817c0.314,0.187,0.704,0.279,1.166,0.279c0.385,0,0.741-0.076,1.079-0.228
					c0.334-0.152,0.622-0.372,0.868-0.653c0.245-0.283,0.44-0.632,0.58-1.05c0.14-0.418,0.21-0.878,0.21-1.376
					c0-0.677-0.122-1.261-0.366-1.758C287.676,475.571,287.346,475.195,286.927,474.938z M286.45,478.94
					c-0.137,0.313-0.32,0.546-0.552,0.704c-0.229,0.153-0.48,0.233-0.748,0.233c-0.454,0-0.828-0.179-1.133-0.536
					c-0.307-0.358-0.46-0.862-0.46-1.504c0-0.687,0.155-1.204,0.462-1.558c0.307-0.35,0.685-0.527,1.131-0.527
					c0.281,0,0.54,0.083,0.77,0.247c0.229,0.163,0.411,0.398,0.542,0.705c0.13,0.306,0.196,0.674,0.196,1.101
					C286.658,478.248,286.589,478.627,286.45,478.94z"/>
				<path id="XMLID_389_" style="fill:#44BEE9;" d="M289.9,474.54c-0.238,0-0.428,0.079-0.58,0.244
					c-0.146,0.163-0.222,0.403-0.222,0.722v4.642c0,0.313,0.076,0.555,0.222,0.729c0.152,0.17,0.342,0.254,0.58,0.254
					s0.432-0.082,0.588-0.251c0.154-0.164,0.231-0.409,0.231-0.731v-4.688c0-0.286-0.077-0.512-0.231-0.675
					C290.332,474.619,290.139,474.54,289.9,474.54z"/>
				<path id="XMLID_388_" style="fill:#44BEE9;" d="M289.917,472.199c-0.217,0-0.407,0.076-0.571,0.223
					c-0.166,0.149-0.247,0.339-0.247,0.568c0,0.253,0.08,0.447,0.242,0.586c0.158,0.138,0.35,0.209,0.576,0.209
					c0.22,0,0.408-0.071,0.566-0.21c0.157-0.14,0.236-0.335,0.236-0.585c0-0.257-0.082-0.454-0.244-0.591
					C290.314,472.267,290.13,472.199,289.917,472.199z"/>
				<path id="XMLID_387_" style="fill:#44BEE9;" d="M297.258,479.569l-1.662-2.614l0.861-0.788c0.438-0.395,0.658-0.714,0.658-0.951
					c0-0.192-0.068-0.354-0.2-0.483c-0.138-0.128-0.306-0.192-0.509-0.192c-0.169,0-0.313,0.043-0.432,0.13
					c-0.121,0.086-0.29,0.251-0.517,0.486l-1.822,1.913v-3.933c0-0.329-0.074-0.581-0.221-0.751
					c-0.147-0.171-0.344-0.257-0.593-0.257c-0.256,0-0.457,0.093-0.596,0.283c-0.136,0.188-0.207,0.462-0.207,0.82v6.914
					c0,0.323,0.073,0.568,0.215,0.732c0.141,0.169,0.339,0.251,0.588,0.251c0.213,0,0.405-0.084,0.566-0.254
					c0.164-0.167,0.247-0.406,0.247-0.719v-1.29l0.88-0.83l1.428,2.352c0.182,0.278,0.329,0.472,0.435,0.58
					c0.107,0.109,0.261,0.16,0.459,0.16c0.226,0,0.412-0.073,0.553-0.222c0.142-0.15,0.214-0.351,0.214-0.609
					c0-0.089-0.029-0.189-0.082-0.288C297.47,479.909,297.379,479.765,297.258,479.569z"/>
				<path id="XMLID_386_" style="fill:#44BEE9;" d="M299.45,479.343c-0.251,0-0.459,0.087-0.63,0.262
					c-0.171,0.173-0.257,0.381-0.257,0.622c0,0.287,0.091,0.51,0.269,0.665c0.179,0.159,0.389,0.238,0.633,0.238
					c0.237,0,0.444-0.079,0.624-0.241c0.175-0.157,0.264-0.38,0.264-0.662c0-0.243-0.089-0.454-0.264-0.626
					C299.909,479.43,299.698,479.343,299.45,479.343z"/>
				<path id="XMLID_385_" style="fill:#44BEE9;" d="M306.835,478.416c-0.166,0-0.308,0.055-0.422,0.156
					c-0.113,0.104-0.219,0.245-0.318,0.427c-0.177,0.31-0.381,0.538-0.616,0.69c-0.23,0.149-0.509,0.225-0.834,0.225
					c-0.24,0-0.463-0.045-0.666-0.141c-0.201-0.094-0.372-0.229-0.516-0.409c-0.144-0.18-0.252-0.398-0.325-0.652
					c-0.075-0.256-0.114-0.537-0.114-0.842c0-0.646,0.147-1.161,0.44-1.533c0.293-0.375,0.682-0.561,1.158-0.561
					c0.333,0,0.606,0.075,0.82,0.227c0.219,0.147,0.425,0.376,0.623,0.674c0.108,0.158,0.209,0.27,0.299,0.339
					c0.09,0.069,0.201,0.104,0.338,0.104c0.202,0,0.377-0.068,0.524-0.203c0.143-0.135,0.214-0.3,0.214-0.491
					c0-0.192-0.062-0.397-0.192-0.617c-0.127-0.218-0.315-0.424-0.556-0.62c-0.245-0.192-0.54-0.352-0.891-0.474
					c-0.353-0.124-0.736-0.185-1.156-0.185c-0.674,0-1.26,0.139-1.747,0.419c-0.485,0.278-0.858,0.673-1.113,1.183
					c-0.259,0.511-0.387,1.098-0.387,1.765c0,0.982,0.281,1.765,0.841,2.35c0.563,0.582,1.345,0.876,2.349,0.876
					c0.469,0,0.894-0.065,1.269-0.191c0.377-0.126,0.688-0.295,0.935-0.503c0.248-0.207,0.434-0.425,0.553-0.655
					c0.122-0.23,0.183-0.446,0.183-0.647c0-0.169-0.066-0.331-0.198-0.481C307.198,478.493,307.033,478.416,306.835,478.416z"/>
				<path id="XMLID_382_" style="fill:#44BEE9;" d="M313.646,475.453c-0.288-0.291-0.628-0.518-1.026-0.675
					c-0.4-0.16-0.847-0.238-1.336-0.238c-0.482,0-0.924,0.078-1.326,0.233c-0.398,0.158-0.737,0.38-1.02,0.669
					c-0.281,0.288-0.498,0.637-0.648,1.045c-0.146,0.408-0.225,0.857-0.225,1.349c0,0.485,0.076,0.93,0.22,1.332
					c0.151,0.401,0.369,0.75,0.657,1.048c0.284,0.292,0.626,0.521,1.016,0.676c0.393,0.159,0.835,0.239,1.326,0.239
					c0.492,0,0.937-0.08,1.336-0.234c0.394-0.157,0.735-0.382,1.02-0.675c0.286-0.291,0.502-0.642,0.656-1.05
					c0.145-0.408,0.222-0.854,0.222-1.336c0-0.488-0.075-0.932-0.221-1.339C314.148,476.096,313.933,475.749,313.646,475.453z
					 M312.455,479.368c-0.29,0.373-0.682,0.558-1.171,0.558c-0.324,0-0.604-0.086-0.846-0.253c-0.24-0.168-0.424-0.409-0.554-0.729
					c-0.129-0.316-0.193-0.685-0.193-1.108c0-0.428,0.066-0.803,0.197-1.124c0.13-0.321,0.314-0.564,0.556-0.728
					c0.242-0.163,0.522-0.245,0.84-0.245c0.489,0,0.881,0.182,1.171,0.555c0.289,0.367,0.436,0.881,0.436,1.542
					C312.891,478.486,312.744,478.999,312.455,479.368z"/>
				<path id="XMLID_381_" style="fill:#44BEE9;" d="M323.569,474.814c-0.32-0.173-0.705-0.263-1.146-0.263
					c-0.38,0-0.726,0.081-1.038,0.241c-0.314,0.161-0.607,0.408-0.882,0.738c-0.191-0.326-0.431-0.572-0.725-0.735
					c-0.292-0.162-0.642-0.244-1.048-0.244c-0.395,0-0.748,0.079-1.07,0.241c-0.319,0.156-0.62,0.403-0.903,0.738v-0.153
					c0-0.261-0.073-0.466-0.221-0.616c-0.15-0.145-0.335-0.221-0.558-0.221c-0.226,0-0.412,0.078-0.556,0.238
					c-0.14,0.157-0.21,0.389-0.21,0.694v4.636c0,0.337,0.078,0.592,0.235,0.765c0.156,0.171,0.358,0.258,0.604,0.258
					c0.248,0,0.447-0.087,0.603-0.258c0.149-0.173,0.227-0.428,0.227-0.765v-2.189c0-0.683,0.086-1.206,0.253-1.566
					c0.169-0.369,0.517-0.55,1.048-0.55c0.264,0,0.459,0.071,0.582,0.22c0.121,0.142,0.197,0.33,0.226,0.552
					c0.027,0.226,0.04,0.544,0.04,0.952v2.581c0,0.342,0.078,0.594,0.232,0.768c0.148,0.17,0.35,0.255,0.595,0.255
					c0.254,0,0.454-0.085,0.61-0.255c0.156-0.174,0.23-0.426,0.23-0.768v-2.153c0-0.694,0.063-1.178,0.178-1.452
					c0.109-0.209,0.259-0.383,0.451-0.508c0.191-0.125,0.395-0.191,0.608-0.191c0.264,0,0.463,0.071,0.596,0.215
					c0.128,0.142,0.209,0.318,0.238,0.528c0.029,0.21,0.044,0.486,0.044,0.837v2.725c0,0.337,0.078,0.592,0.234,0.765
					c0.157,0.171,0.356,0.258,0.604,0.258c0.252,0,0.458-0.085,0.611-0.255c0.154-0.174,0.229-0.426,0.229-0.768v-3.163
					c0-0.629-0.068-1.091-0.206-1.386C324.128,475.237,323.889,474.987,323.569,474.814z"/>
			</g>
			<g id="XMLID_366_">
				<path id="XMLID_379_" style="fill:#44BEE9;" d="M245.273,477.443c-0.001-0.003-0.001-0.006-0.001-0.011
					C245.272,477.438,245.272,477.44,245.273,477.443z"/>
				<path id="XMLID_378_" style="fill:#44BEE9;" d="M245.355,477.961c0.001,0,0.001,0,0.001,0c-0.03-0.146-0.055-0.294-0.073-0.438
					C245.301,477.669,245.326,477.816,245.355,477.961z"/>
				<path id="XMLID_377_" style="fill:#44BEE9;" d="M245.891,479.466c-0.003-0.007-0.006-0.014-0.01-0.021
					C245.885,479.452,245.888,479.459,245.891,479.466z"/>
				<path id="XMLID_376_" style="fill:#44BEE9;" d="M245.84,479.365c-0.014-0.027-0.027-0.056-0.04-0.083
					C245.812,479.311,245.826,479.338,245.84,479.365z"/>
				<path id="XMLID_375_" style="fill:#44BEE9;" d="M245.505,478.541c0.08,0.25,0.175,0.492,0.286,0.724
					c-0.113-0.236-0.206-0.478-0.284-0.724H245.505z"/>
				<path id="XMLID_374_" style="fill:#44BEE9;" d="M250.736,470.682l-0.076-0.26c0.299-0.063,0.523-0.329,0.523-0.647
					c0-0.363-0.296-0.659-0.66-0.659c-0.365,0-0.66,0.296-0.66,0.659c0,0.317,0.225,0.584,0.522,0.647l0.084,0.289
					c-1.021,0.141-1.834,0.539-1.834,0.539l0.144,0.44c0.617-0.206,1.153-0.331,1.64-0.383c0.476-0.051,0.833-0.073,1.126-0.073
					c0.313,0,0.545,0.025,0.81,0.069l0.075-0.476C252.43,470.828,251.697,470.603,250.736,470.682z"/>
				<path id="XMLID_373_" style="fill:#44BEE9;" d="M245.453,473.189c-0.017,0.023-0.497,0.465-0.876,1.279
					c-0.016-0.025-0.035-0.051-0.056-0.074c-0.114-0.124-0.272-0.188-0.474-0.184c-0.003,0-0.006,0-0.01,0
					c-0.124,0-0.21-0.042-0.266-0.093c0.056-0.07,0.089-0.16,0.089-0.258c0-0.23-0.188-0.419-0.419-0.419
					c-0.23,0-0.417,0.189-0.417,0.419c0,0.231,0.188,0.417,0.417,0.417c0.037,0,0.071-0.005,0.105-0.012
					c0.102,0.113,0.266,0.214,0.504,0.209c0.124-0.002,0.214,0.03,0.273,0.097c0.07,0.075,0.093,0.185,0.1,0.267
					c-0.001,0.002-0.001,0.004-0.002,0.004c-0.272,0.743-0.194,1.668-0.194,1.668l0.661,0.025c0.014-0.336,0.061-0.925,0.232-1.393
					c0.329-0.906,0.741-1.472,0.757-1.496l0.004-0.005c0.024-0.031,0.047-0.06,0.071-0.089l-0.196-0.142L245.453,473.189z"/>
				<path id="XMLID_372_" style="fill:#44BEE9;" d="M257.294,471.787c-0.23,0-0.419,0.186-0.419,0.417
					c0,0.037,0.006,0.071,0.016,0.104c-0.115,0.104-0.215,0.267-0.211,0.506c0.002,0.123-0.03,0.213-0.097,0.273
					c-0.053,0.047-0.119,0.071-0.185,0.087c-0.492-0.689-1.098-1.109-1.098-1.109l-0.474,0.509c0.358,0.326,0.725,0.734,1.08,1.244
					c0.246,0.352,0.499,0.806,0.71,1.258l0.64-0.304c0,0-0.292-0.722-0.703-1.369c0.071-0.025,0.143-0.063,0.206-0.12
					c0.126-0.113,0.188-0.272,0.184-0.474c-0.001-0.13,0.041-0.218,0.093-0.275c0.071,0.054,0.16,0.089,0.258,0.089
					c0.232,0,0.418-0.188,0.418-0.419C257.712,471.974,257.525,471.787,257.294,471.787z"/>
				<path id="XMLID_371_" style="fill:#44BEE9;" d="M255.633,477.537c-0.88,0.429-2.33,0.996-4.236,1.262
					c-0.749,0.104-1.475,0.143-2.143,0.143c-0.869,0-1.638-0.064-2.227-0.14c-0.672-0.084-1.198-0.188-1.52-0.261
					c0.078,0.245,0.171,0.487,0.284,0.724c0.002,0.006,0.005,0.013,0.008,0.018c0.013,0.027,0.027,0.056,0.04,0.083
					c0.014,0.027,0.027,0.055,0.041,0.079c0.004,0.008,0.007,0.015,0.01,0.021c0.19,0.357,0.417,0.684,0.676,0.968
					c0.899,0.984,1.816,1.139,1.825,1.141l0.015,0.002l0.013,0.005c0.009,0.003,0.821,0.265,2.057,0.265
					c1.215,0,2.409-0.244,3.545-0.729c0.842-0.431,1.639-1.085,2.033-1.668c0.306-0.452,0.526-0.934,0.656-1.434
					c0.069-0.266,0.124-0.692,0.092-1.141C256.555,477.042,256.163,477.279,255.633,477.537z"/>
				<path id="XMLID_367_" style="fill:#44BEE9;" d="M252.322,471.655c-0.265-0.044-0.477-0.068-0.777-0.068
					c-0.279,0-0.626,0.022-1.088,0.07c-0.465,0.049-0.982,0.171-1.583,0.373c-0.842,0.282-1.604,0.725-2.204,1.28l-0.02,0.019
					c-0.089,0.081-0.275,0.254-0.488,0.525c-0.025,0.037-0.408,0.578-0.709,1.408c-0.226,0.621-0.216,1.526-0.216,1.537v0.001
					c0,0.212,0.013,0.423,0.036,0.632c0,0.005,0,0.008,0.001,0.011c0.003,0.027,0.007,0.053,0.01,0.08
					c0.019,0.144,0.043,0.291,0.074,0.438c0.438,0.112,3.048,0.721,5.967,0.314c1.829-0.254,3.218-0.795,4.061-1.204
					c0.701-0.34,1.151-0.647,1.325-0.773c-0.173-0.643-0.651-1.65-1.089-2.278C254.367,472.228,253.016,471.77,252.322,471.655z
					 M248.679,476.914c-0.972,0-1.759-0.787-1.759-1.76c0-0.972,0.788-1.76,1.759-1.76c0.973,0,1.761,0.788,1.761,1.76
					C250.439,476.127,249.651,476.914,248.679,476.914z M253.828,475.617c-0.601,0-1.088-0.489-1.088-1.09
					c0-0.603,0.487-1.09,1.088-1.09s1.09,0.487,1.09,1.09C254.918,475.128,254.429,475.617,253.828,475.617z"/>
			</g>
		</g>
	</g>
</g>
</svg>
